<mxfile host="app.diagrams.net" modified="2024-04-25T10:59:23.702Z" agent="Mozilla/5.0 (Windows NT 10.0; Win64; x64) AppleWebKit/537.36 (KHTML, like Gecko) Chrome/124.0.0.0 Safari/537.36" etag="5ul38WC9jCgx_pHQ6-mB" version="24.3.0" type="github">
  <diagram name="Page-1" id="-cT09IQETsLfMejOZerS">
    <mxGraphModel dx="2954" dy="1106" grid="1" gridSize="10" guides="1" tooltips="1" connect="1" arrows="1" fold="1" page="1" pageScale="1" pageWidth="850" pageHeight="1100" math="0" shadow="0">
      <root>
        <mxCell id="0" />
        <mxCell id="1" parent="0" />
        <mxCell id="vd8t_71U_yh1O-v_x3m3-22" style="edgeStyle=orthogonalEdgeStyle;rounded=0;orthogonalLoop=1;jettySize=auto;html=1;exitX=0.425;exitY=1.017;exitDx=0;exitDy=0;entryX=0;entryY=0.5;entryDx=0;entryDy=0;exitPerimeter=0;" edge="1" parent="1" source="vd8t_71U_yh1O-v_x3m3-1" target="vd8t_71U_yh1O-v_x3m3-7">
          <mxGeometry relative="1" as="geometry">
            <Array as="points">
              <mxPoint x="259" y="81" />
              <mxPoint x="259" y="250" />
              <mxPoint x="260" y="250" />
              <mxPoint x="260" y="840" />
            </Array>
          </mxGeometry>
        </mxCell>
        <mxCell id="vd8t_71U_yh1O-v_x3m3-23" value="dependency" style="edgeLabel;html=1;align=center;verticalAlign=middle;resizable=0;points=[];" vertex="1" connectable="0" parent="vd8t_71U_yh1O-v_x3m3-22">
          <mxGeometry x="-0.7416" y="-1" relative="1" as="geometry">
            <mxPoint x="11" y="44" as="offset" />
          </mxGeometry>
        </mxCell>
        <mxCell id="vd8t_71U_yh1O-v_x3m3-1" value="&lt;b&gt;EessiRest.WAR&lt;/b&gt;&lt;div&gt;eessi-rina-services/&lt;br&gt;eessi-rina-services-tx&lt;/div&gt;" style="rounded=0;whiteSpace=wrap;html=1;" vertex="1" parent="1">
          <mxGeometry x="210" y="20" width="120" height="60" as="geometry" />
        </mxCell>
        <mxCell id="vd8t_71U_yh1O-v_x3m3-2" value="&lt;b&gt;Rinie&lt;span style=&quot;background-color: initial;&quot;&gt;Rest.WAR&lt;/span&gt;&lt;/b&gt;&lt;div&gt;&lt;div&gt;eessi-rina-demo/&lt;br&gt;eessi-rina-nie-war&lt;/div&gt;&lt;/div&gt;" style="rounded=0;whiteSpace=wrap;html=1;" vertex="1" parent="1">
          <mxGeometry x="2320" y="20" width="120" height="60" as="geometry" />
        </mxCell>
        <mxCell id="vd8t_71U_yh1O-v_x3m3-3" value="&lt;b&gt;eessi-rina-nieclient-api&lt;br&gt;(.JAR)&lt;/b&gt;" style="rounded=0;whiteSpace=wrap;html=1;" vertex="1" parent="1">
          <mxGeometry x="780" y="370" width="120" height="60" as="geometry" />
        </mxCell>
        <mxCell id="vd8t_71U_yh1O-v_x3m3-4" value="&lt;b&gt;&lt;font style=&quot;font-size: 15px;&quot;&gt;NIE&lt;/font&gt;&lt;/b&gt;" style="text;html=1;align=center;verticalAlign=middle;whiteSpace=wrap;rounded=0;" vertex="1" parent="1">
          <mxGeometry x="90" y="360" width="60" height="30" as="geometry" />
        </mxCell>
        <mxCell id="vd8t_71U_yh1O-v_x3m3-5" value="" style="endArrow=none;dashed=1;html=1;rounded=0;strokeWidth=3;" edge="1" parent="1">
          <mxGeometry width="50" height="50" relative="1" as="geometry">
            <mxPoint x="10" y="360" as="sourcePoint" />
            <mxPoint x="1800" y="360" as="targetPoint" />
          </mxGeometry>
        </mxCell>
        <mxCell id="vd8t_71U_yh1O-v_x3m3-15" style="edgeStyle=orthogonalEdgeStyle;rounded=0;orthogonalLoop=1;jettySize=auto;html=1;exitX=0.5;exitY=0;exitDx=0;exitDy=0;shape=flexArrow;" edge="1" parent="1" source="vd8t_71U_yh1O-v_x3m3-6" target="vd8t_71U_yh1O-v_x3m3-9">
          <mxGeometry relative="1" as="geometry" />
        </mxCell>
        <mxCell id="vd8t_71U_yh1O-v_x3m3-16" value="implements" style="edgeLabel;html=1;align=center;verticalAlign=middle;resizable=0;points=[];" vertex="1" connectable="0" parent="vd8t_71U_yh1O-v_x3m3-15">
          <mxGeometry x="-0.45" y="2" relative="1" as="geometry">
            <mxPoint as="offset" />
          </mxGeometry>
        </mxCell>
        <mxCell id="vd8t_71U_yh1O-v_x3m3-6" value="&lt;b&gt;eessi-rina-nieclient-impl&lt;br&gt;(.JAR)&lt;/b&gt;" style="rounded=0;whiteSpace=wrap;html=1;" vertex="1" parent="1">
          <mxGeometry x="1830" y="840" width="120" height="60" as="geometry" />
        </mxCell>
        <mxCell id="vd8t_71U_yh1O-v_x3m3-7" value="&lt;b&gt;eessi-rina-nieclient-ms-client&lt;br&gt;(.JAR)&lt;/b&gt;" style="rounded=0;whiteSpace=wrap;html=1;" vertex="1" parent="1">
          <mxGeometry x="670" y="810" width="120" height="60" as="geometry" />
        </mxCell>
        <mxCell id="vd8t_71U_yh1O-v_x3m3-20" style="edgeStyle=orthogonalEdgeStyle;rounded=0;orthogonalLoop=1;jettySize=auto;html=1;exitX=0.5;exitY=1;exitDx=0;exitDy=0;" edge="1" parent="1" source="vd8t_71U_yh1O-v_x3m3-8" target="vd8t_71U_yh1O-v_x3m3-6">
          <mxGeometry relative="1" as="geometry">
            <Array as="points">
              <mxPoint x="1430" y="870" />
            </Array>
          </mxGeometry>
        </mxCell>
        <mxCell id="vd8t_71U_yh1O-v_x3m3-21" value="dependency" style="edgeLabel;html=1;align=center;verticalAlign=middle;resizable=0;points=[];" vertex="1" connectable="0" parent="vd8t_71U_yh1O-v_x3m3-20">
          <mxGeometry x="0.3296" y="3" relative="1" as="geometry">
            <mxPoint as="offset" />
          </mxGeometry>
        </mxCell>
        <mxCell id="vd8t_71U_yh1O-v_x3m3-8" value="&lt;b&gt;eessi-rina-nieclient-ms-server&lt;/b&gt;&lt;div&gt;&lt;b&gt;(.WAR)&lt;/b&gt;&lt;/div&gt;" style="rounded=0;whiteSpace=wrap;html=1;" vertex="1" parent="1">
          <mxGeometry x="1370" y="780" width="120" height="60" as="geometry" />
        </mxCell>
        <mxCell id="vd8t_71U_yh1O-v_x3m3-9" value="interface:&lt;br&gt;NieClient" style="text;html=1;align=center;verticalAlign=middle;resizable=0;points=[];autosize=1;strokeColor=none;fillColor=none;" vertex="1" parent="1">
          <mxGeometry x="910" y="440" width="70" height="40" as="geometry" />
        </mxCell>
        <mxCell id="vd8t_71U_yh1O-v_x3m3-10" value="interface:&lt;br&gt;NieMSServer" style="text;html=1;align=center;verticalAlign=middle;resizable=0;points=[];autosize=1;strokeColor=none;fillColor=none;" vertex="1" parent="1">
          <mxGeometry x="795" y="440" width="90" height="40" as="geometry" />
        </mxCell>
        <mxCell id="vd8t_71U_yh1O-v_x3m3-11" value="interface:&lt;br&gt;NieMSClient" style="text;html=1;align=center;verticalAlign=middle;resizable=0;points=[];autosize=1;strokeColor=none;fillColor=none;" vertex="1" parent="1">
          <mxGeometry x="690" y="440" width="90" height="40" as="geometry" />
        </mxCell>
        <mxCell id="vd8t_71U_yh1O-v_x3m3-14" style="edgeStyle=orthogonalEdgeStyle;rounded=0;orthogonalLoop=1;jettySize=auto;html=1;exitX=0.5;exitY=0;exitDx=0;exitDy=0;entryX=0.511;entryY=0.975;entryDx=0;entryDy=0;entryPerimeter=0;shape=flexArrow;" edge="1" parent="1" source="vd8t_71U_yh1O-v_x3m3-7" target="vd8t_71U_yh1O-v_x3m3-11">
          <mxGeometry relative="1" as="geometry">
            <Array as="points">
              <mxPoint x="736" y="810" />
            </Array>
          </mxGeometry>
        </mxCell>
        <mxCell id="vd8t_71U_yh1O-v_x3m3-18" value="implements" style="edgeLabel;html=1;align=center;verticalAlign=middle;resizable=0;points=[];" vertex="1" connectable="0" parent="vd8t_71U_yh1O-v_x3m3-14">
          <mxGeometry x="-0.2465" y="1" relative="1" as="geometry">
            <mxPoint as="offset" />
          </mxGeometry>
        </mxCell>
        <mxCell id="vd8t_71U_yh1O-v_x3m3-17" style="edgeStyle=orthogonalEdgeStyle;rounded=0;orthogonalLoop=1;jettySize=auto;html=1;exitX=0.5;exitY=0;exitDx=0;exitDy=0;entryX=0.522;entryY=0.975;entryDx=0;entryDy=0;entryPerimeter=0;shape=flexArrow;" edge="1" parent="1" source="vd8t_71U_yh1O-v_x3m3-8" target="vd8t_71U_yh1O-v_x3m3-10">
          <mxGeometry relative="1" as="geometry" />
        </mxCell>
        <mxCell id="vd8t_71U_yh1O-v_x3m3-19" value="implements" style="edgeLabel;html=1;align=center;verticalAlign=middle;resizable=0;points=[];" vertex="1" connectable="0" parent="vd8t_71U_yh1O-v_x3m3-17">
          <mxGeometry x="-0.2993" y="-2" relative="1" as="geometry">
            <mxPoint as="offset" />
          </mxGeometry>
        </mxCell>
        <mxCell id="vd8t_71U_yh1O-v_x3m3-24" value="NieHelperService.java" style="swimlane;fontStyle=0;childLayout=stackLayout;horizontal=1;startSize=26;fillColor=none;horizontalStack=0;resizeParent=1;resizeParentMax=0;resizeLast=0;collapsible=1;marginBottom=0;whiteSpace=wrap;html=1;" vertex="1" parent="1">
          <mxGeometry x="380" y="230" width="220" height="120" as="geometry" />
        </mxCell>
        <mxCell id="vd8t_71U_yh1O-v_x3m3-25" value="private NieMsClient nieMsClient;&lt;br&gt;&lt;br&gt;..&amp;nbsp; {&lt;br&gt;&amp;nbsp; &amp;nbsp; nieMsClient.fireDocumentEvent(..)&lt;br&gt;..&lt;br&gt;}" style="text;strokeColor=none;fillColor=none;align=left;verticalAlign=top;spacingLeft=4;spacingRight=4;overflow=hidden;rotatable=0;points=[[0,0.5],[1,0.5]];portConstraint=eastwest;whiteSpace=wrap;html=1;" vertex="1" parent="vd8t_71U_yh1O-v_x3m3-24">
          <mxGeometry y="26" width="220" height="94" as="geometry" />
        </mxCell>
        <mxCell id="vd8t_71U_yh1O-v_x3m3-28" value="NieServiceClientSyncImpl.java implements NieMsClient" style="swimlane;fontStyle=0;childLayout=stackLayout;horizontal=1;startSize=26;fillColor=none;horizontalStack=0;resizeParent=1;resizeParentMax=0;resizeLast=0;collapsible=1;marginBottom=0;whiteSpace=wrap;html=1;" vertex="1" parent="1">
          <mxGeometry x="695" y="960" width="430" height="240" as="geometry" />
        </mxCell>
        <mxCell id="vd8t_71U_yh1O-v_x3m3-29" value="private&amp;nbsp;&lt;span style=&quot;font-family: &amp;quot;JetBrains Mono&amp;quot;, monospace; background-color: rgb(255, 255, 255);&quot;&gt;NieMSServer &lt;/span&gt;&lt;span style=&quot;font-family: &amp;quot;JetBrains Mono&amp;quot;, monospace; background-color: rgb(255, 255, 255); color: rgb(135, 16, 148);&quot;&gt;nieServiceServer&lt;/span&gt;&lt;span style=&quot;background-color: initial;&quot;&gt;;&lt;br&gt;&lt;/span&gt;&lt;br&gt;&lt;div style=&quot;background-color:#ffffff;color:#080808&quot;&gt;&lt;pre style=&quot;font-family:&#39;JetBrains Mono&#39;,monospace;font-size:8,3pt;&quot;&gt;&lt;span style=&quot;color:#0033b3;&quot;&gt;private &lt;/span&gt;&lt;span style=&quot;color:#00627a;&quot;&gt;NieServiceClientSyncImpl&lt;/span&gt;() {&lt;br&gt;    &lt;span style=&quot;color:#0033b3;&quot;&gt;try &lt;/span&gt;(&lt;span style=&quot;color:#000000;&quot;&gt;ClassPathXmlApplicationContext context &lt;/span&gt;=&lt;br&gt;                 &lt;span style=&quot;color:#0033b3;&quot;&gt;new &lt;/span&gt;ClassPathXmlApplicationContext&lt;br&gt;(&lt;span style=&quot;color:#067d17;&quot;&gt;&quot;spring-config/spring-config-client-nie.xml&quot;&lt;/span&gt;)) {&lt;br&gt;        &lt;span style=&quot;color:#871094;&quot;&gt;nieServiceServer &lt;/span&gt;= &lt;span style=&quot;color:#000000;&quot;&gt;context&lt;/span&gt;.getBean(&lt;span style=&quot;color:#000000;&quot;&gt;NieMSServer&lt;/span&gt;.&lt;span style=&quot;color:#0033b3;&quot;&gt;class&lt;/span&gt;);&lt;br&gt;    }&lt;br&gt;}&lt;/pre&gt;&lt;/div&gt;&lt;br&gt;..&amp;nbsp; {&lt;br&gt;&amp;nbsp; &amp;nbsp;&amp;nbsp;&lt;span style=&quot;color: rgb(135, 16, 148); font-family: &amp;quot;JetBrains Mono&amp;quot;, monospace; background-color: rgb(255, 255, 255);&quot;&gt;nieServiceServer&lt;/span&gt;.fireDocumentEvent(..)&lt;br&gt;..&lt;br&gt;}" style="text;strokeColor=none;fillColor=none;align=left;verticalAlign=top;spacingLeft=4;spacingRight=4;overflow=hidden;rotatable=0;points=[[0,0.5],[1,0.5]];portConstraint=eastwest;whiteSpace=wrap;html=1;" vertex="1" parent="vd8t_71U_yh1O-v_x3m3-28">
          <mxGeometry y="26" width="430" height="214" as="geometry" />
        </mxCell>
        <mxCell id="vd8t_71U_yh1O-v_x3m3-31" value="&lt;b&gt;&lt;font style=&quot;font-size: 15px;&quot;&gt;1.&lt;/font&gt;&lt;/b&gt;" style="text;html=1;align=center;verticalAlign=middle;resizable=0;points=[];autosize=1;strokeColor=none;fillColor=none;" vertex="1" parent="1">
          <mxGeometry x="395" y="200" width="40" height="30" as="geometry" />
        </mxCell>
        <mxCell id="vd8t_71U_yh1O-v_x3m3-32" style="edgeStyle=orthogonalEdgeStyle;rounded=0;orthogonalLoop=1;jettySize=auto;html=1;entryX=0;entryY=0.5;entryDx=0;entryDy=0;" edge="1" parent="1" source="vd8t_71U_yh1O-v_x3m3-25" target="vd8t_71U_yh1O-v_x3m3-29">
          <mxGeometry relative="1" as="geometry" />
        </mxCell>
        <mxCell id="vd8t_71U_yh1O-v_x3m3-34" style="edgeStyle=orthogonalEdgeStyle;rounded=0;orthogonalLoop=1;jettySize=auto;html=1;entryX=-0.002;entryY=0.43;entryDx=0;entryDy=0;entryPerimeter=0;" edge="1" parent="1" source="vd8t_71U_yh1O-v_x3m3-29" target="vd8t_71U_yh1O-v_x3m3-39">
          <mxGeometry relative="1" as="geometry">
            <mxPoint x="1260" y="1093" as="targetPoint" />
            <Array as="points">
              <mxPoint x="1260" y="1093" />
              <mxPoint x="1260" y="1232" />
            </Array>
          </mxGeometry>
        </mxCell>
        <mxCell id="vd8t_71U_yh1O-v_x3m3-35" value="&lt;b&gt;2.&lt;/b&gt;" style="edgeLabel;html=1;align=center;verticalAlign=middle;resizable=0;points=[];" vertex="1" connectable="0" parent="vd8t_71U_yh1O-v_x3m3-34">
          <mxGeometry x="-0.5977" y="1" relative="1" as="geometry">
            <mxPoint as="offset" />
          </mxGeometry>
        </mxCell>
        <mxCell id="vd8t_71U_yh1O-v_x3m3-36" value="&lt;b&gt;&lt;font style=&quot;font-size: 15px;&quot;&gt;2.&lt;/font&gt;&lt;/b&gt;" style="edgeLabel;html=1;align=center;verticalAlign=middle;resizable=0;points=[];" vertex="1" connectable="0" parent="vd8t_71U_yh1O-v_x3m3-34">
          <mxGeometry x="-0.5996" relative="1" as="geometry">
            <mxPoint as="offset" />
          </mxGeometry>
        </mxCell>
        <mxCell id="vd8t_71U_yh1O-v_x3m3-38" value="NieServiceServermpl.java implements NieMsServer" style="swimlane;fontStyle=0;childLayout=stackLayout;horizontal=1;startSize=26;fillColor=none;horizontalStack=0;resizeParent=1;resizeParentMax=0;resizeLast=0;collapsible=1;marginBottom=0;whiteSpace=wrap;html=1;" vertex="1" parent="1">
          <mxGeometry x="1290" y="1153" width="360" height="150" as="geometry" />
        </mxCell>
        <mxCell id="vd8t_71U_yh1O-v_x3m3-39" value="private&amp;nbsp;&lt;span style=&quot;font-family: &amp;quot;JetBrains Mono&amp;quot;, monospace; background-color: rgb(255, 255, 255);&quot;&gt;NieClient &lt;/span&gt;&lt;span style=&quot;font-family: &amp;quot;JetBrains Mono&amp;quot;, monospace; background-color: rgb(255, 255, 255); color: rgb(135, 16, 148);&quot;&gt;nieClient&lt;/span&gt;&lt;span style=&quot;font-family: &amp;quot;JetBrains Mono&amp;quot;, monospace; background-color: rgb(255, 255, 255); color: rgb(8, 8, 8);&quot;&gt;;&lt;/span&gt;&lt;br&gt;&lt;br&gt;&lt;div style=&quot;background-color:#ffffff;color:#080808&quot;&gt;&lt;pre style=&quot;font-family:&#39;JetBrains Mono&#39;,monospace;font-size:8,3pt;&quot;&gt;&lt;span style=&quot;background-color: initial; color: rgb(0, 0, 0); font-family: Helvetica; white-space: normal;&quot;&gt;..&amp;nbsp; {&lt;/span&gt;&lt;br&gt;&lt;/pre&gt;&lt;/div&gt;&amp;nbsp; &amp;nbsp;&amp;nbsp;&lt;span style=&quot;color: rgb(135, 16, 148); font-family: &amp;quot;JetBrains Mono&amp;quot;, monospace; background-color: rgb(255, 255, 255);&quot;&gt;nieClient&lt;/span&gt;.fireDocumentEvent(..)&lt;br&gt;..&lt;br&gt;}" style="text;strokeColor=none;fillColor=none;align=left;verticalAlign=top;spacingLeft=4;spacingRight=4;overflow=hidden;rotatable=0;points=[[0,0.5],[1,0.5]];portConstraint=eastwest;whiteSpace=wrap;html=1;" vertex="1" parent="vd8t_71U_yh1O-v_x3m3-38">
          <mxGeometry y="26" width="360" height="124" as="geometry" />
        </mxCell>
        <mxCell id="vd8t_71U_yh1O-v_x3m3-41" value="&lt;b&gt;&lt;font style=&quot;font-size: 15px;&quot;&gt;3.&lt;/font&gt;&lt;/b&gt;" style="edgeLabel;html=1;align=center;verticalAlign=middle;resizable=0;points=[];" vertex="1" connectable="0" parent="1">
          <mxGeometry x="1690" y="1286" as="geometry">
            <mxPoint x="-4" y="-12" as="offset" />
          </mxGeometry>
        </mxCell>
        <mxCell id="vd8t_71U_yh1O-v_x3m3-42" value="NieClientImpl.java implements NieClient" style="swimlane;fontStyle=0;childLayout=stackLayout;horizontal=1;startSize=26;fillColor=none;horizontalStack=0;resizeParent=1;resizeParentMax=0;resizeLast=0;collapsible=1;marginBottom=0;whiteSpace=wrap;html=1;" vertex="1" parent="1">
          <mxGeometry x="1690" y="1450" width="430" height="240" as="geometry" />
        </mxCell>
        <mxCell id="vd8t_71U_yh1O-v_x3m3-51" style="edgeStyle=orthogonalEdgeStyle;rounded=0;orthogonalLoop=1;jettySize=auto;html=1;" edge="1" parent="vd8t_71U_yh1O-v_x3m3-42" source="vd8t_71U_yh1O-v_x3m3-43">
          <mxGeometry relative="1" as="geometry">
            <mxPoint x="690" y="-1290" as="targetPoint" />
          </mxGeometry>
        </mxCell>
        <mxCell id="vd8t_71U_yh1O-v_x3m3-43" value="&lt;span style=&quot;background-color: initial;&quot;&gt;private static final RestClient restClient = new RestClient();&lt;br&gt;&lt;/span&gt;&lt;br&gt;&lt;br&gt;..&amp;nbsp; {&lt;br&gt;&amp;nbsp; &amp;nbsp;&amp;nbsp;&lt;span style=&quot;color: rgb(135, 16, 148); font-family: &amp;quot;JetBrains Mono&amp;quot;, monospace; background-color: rgb(255, 255, 255);&quot;&gt;restClient&lt;/span&gt;.postEvent(..)&lt;br&gt;..&lt;br&gt;}" style="text;strokeColor=none;fillColor=none;align=left;verticalAlign=top;spacingLeft=4;spacingRight=4;overflow=hidden;rotatable=0;points=[[0,0.5],[1,0.5]];portConstraint=eastwest;whiteSpace=wrap;html=1;" vertex="1" parent="vd8t_71U_yh1O-v_x3m3-42">
          <mxGeometry y="26" width="430" height="214" as="geometry" />
        </mxCell>
        <mxCell id="vd8t_71U_yh1O-v_x3m3-45" style="edgeStyle=orthogonalEdgeStyle;rounded=0;orthogonalLoop=1;jettySize=auto;html=1;exitX=1;exitY=0.5;exitDx=0;exitDy=0;entryX=0;entryY=0.5;entryDx=0;entryDy=0;" edge="1" parent="1" source="vd8t_71U_yh1O-v_x3m3-39" target="vd8t_71U_yh1O-v_x3m3-43">
          <mxGeometry relative="1" as="geometry">
            <Array as="points">
              <mxPoint x="1650" y="1240" />
              <mxPoint x="1670" y="1240" />
              <mxPoint x="1670" y="1563" />
              <mxPoint x="1690" y="1563" />
            </Array>
          </mxGeometry>
        </mxCell>
        <mxCell id="vd8t_71U_yh1O-v_x3m3-50" style="edgeStyle=orthogonalEdgeStyle;rounded=0;orthogonalLoop=1;jettySize=auto;html=1;exitX=0.5;exitY=1;exitDx=0;exitDy=0;entryX=0;entryY=0.5;entryDx=0;entryDy=0;" edge="1" parent="1" source="vd8t_71U_yh1O-v_x3m3-47" target="vd8t_71U_yh1O-v_x3m3-25">
          <mxGeometry relative="1" as="geometry">
            <Array as="points">
              <mxPoint x="425" y="150" />
              <mxPoint x="360" y="150" />
              <mxPoint x="360" y="303" />
            </Array>
          </mxGeometry>
        </mxCell>
        <mxCell id="vd8t_71U_yh1O-v_x3m3-47" value="@RestController&lt;br&gt;DocumentCotroller" style="swimlane;fontStyle=0;childLayout=stackLayout;horizontal=1;startSize=26;fillColor=none;horizontalStack=0;resizeParent=1;resizeParentMax=0;resizeLast=0;collapsible=1;marginBottom=0;whiteSpace=wrap;html=1;" vertex="1" parent="1">
          <mxGeometry x="315" y="100" width="220" height="30" as="geometry" />
        </mxCell>
        <mxCell id="vd8t_71U_yh1O-v_x3m3-49" value="&lt;b&gt;START&lt;/b&gt;" style="text;html=1;align=center;verticalAlign=middle;resizable=0;points=[];autosize=1;strokeColor=none;fillColor=none;" vertex="1" parent="1">
          <mxGeometry x="340" y="68" width="60" height="30" as="geometry" />
        </mxCell>
      </root>
    </mxGraphModel>
  </diagram>
</mxfile>
